<?xml version="1.0" standalone="no"?>
<!DOCTYPE svg PUBLIC "-//W3C//DTD SVG 20010904//EN"
 "http://www.w3.org/TR/2001/REC-SVG-20010904/DTD/svg10.dtd">
<svg version="1.0" xmlns="http://www.w3.org/2000/svg"
 width="744.000000pt" height="677.000000pt" viewBox="0 0 744.000000 677.000000"
 preserveAspectRatio="xMidYMid meet">

<g transform="translate(0.000000,677.000000) scale(0.100000,-0.100000)"
fill="#000000" stroke="none">
<path d="M50 6611 l0 -98 84 -5 c65 -3 96 -10 140 -32 77 -38 175 -131 214
-204 67 -125 65 -100 72 -927 6 -622 10 -770 24 -865 107 -736 447 -1208 1101
-1530 377 -186 763 -283 1273 -320 79 -6 158 -16 176 -24 70 -29 66 32 66
-907 0 -940 0 -941 -64 -1076 -58 -121 -165 -208 -341 -278 -91 -36 -269 -72
-400 -81 l-105 -7 0 -106 0 -106 1440 0 1440 0 0 102 0 102 -42 5 c-190 23
-245 31 -331 52 -295 72 -449 193 -515 407 -14 46 -17 156 -19 937 -3 865 -3
886 16 917 24 38 68 53 161 53 85 0 328 24 455 45 672 109 1250 401 1575 795
211 256 337 560 402 963 20 123 22 183 28 917 6 860 4 823 67 933 79 135 250
237 400 237 l43 0 0 100 0 100 -301 0 c-340 0 -454 -12 -606 -62 -249 -82
-446 -267 -587 -549 -140 -281 -198 -571 -216 -1084 -28 -772 -38 -907 -85
-1100 -83 -350 -252 -572 -545 -720 -210 -106 -527 -166 -627 -118 -43 20 -90
90 -98 147 -5 33 -1 57 19 105 50 124 47 169 -18 264 -23 34 -45 73 -49 86 -8
33 20 97 55 125 36 28 32 39 -25 64 -53 24 -67 41 -74 91 -5 33 0 49 32 100
31 50 36 66 31 95 -9 47 -59 89 -139 115 -74 25 -151 71 -166 100 -34 63 7
176 118 326 75 100 234 399 257 483 19 67 18 79 -32 397 -41 261 14 471 182
694 93 124 229 208 389 239 l86 17 2 93 2 92 -1287 0 -1288 0 0 -93 0 -94 78
-15 c42 -9 103 -26 134 -38 205 -77 387 -305 453 -566 23 -92 19 -245 -10
-414 -39 -224 -41 -264 -16 -338 32 -95 179 -367 256 -473 78 -108 116 -183
123 -245 8 -74 -34 -115 -178 -169 -138 -52 -173 -119 -110 -210 22 -32 30
-55 30 -88 0 -50 -18 -71 -87 -106 -24 -12 -43 -24 -43 -27 0 -2 15 -18 34
-35 39 -34 61 -87 51 -121 -4 -13 -23 -45 -42 -72 -73 -102 -78 -147 -32 -263
35 -89 34 -131 -6 -198 -33 -58 -87 -85 -168 -85 -207 0 -500 102 -682 237
-238 177 -362 412 -420 800 -20 137 -33 367 -45 788 -9 349 -31 603 -66 771
-111 539 -399 906 -795 1013 -121 33 -228 41 -546 41 l-303 0 0 -99z"/>
</g>
</svg>
